<svg viewBox="0 0 47 39" xmlns="http://www.w3.org/2000/svg">
<g clip-path="url(#clip0)">
<path d="M43.9021 38.2544H3.88924C2.33782 38.2544 1.03149 36.8746 1.03149 35.1388V3.62737C1.03131 1.93598 2.29685 0.511759 3.88924 0.511759H43.9021C45.4535 0.511759 46.7602 1.89151 46.7602 3.62737V35.1388C46.7602 36.8746 45.4944 38.2544 43.9021 38.2544Z" fill="#E3E3E3"/>
<path opacity="0.1" d="M6.7478 38.2541L23.8553 23.2549L23.9779 22.4537L6.33955 8.61193L6.29858 37.5865L6.7478 38.2541Z" fill="#231F20"/>
<path d="M3.88942 38.2541C2.29703 38.2541 1.03149 36.8743 1.03149 35.1385V3.58242C1.03149 1.84676 2.29703 1.53512 3.88942 1.53512C5.48181 1.53512 6.74753 1.89122 6.74753 3.58242V38.2541H3.88942Z" fill="#D54B3D"/>
<path d="M3.88924 1.98015C5.93067 1.98015 6.3391 2.64789 6.3391 3.58242V37.809H3.88924C2.54195 37.809 1.43956 36.6073 1.43956 35.1385V3.58242C1.43956 2.60323 1.84781 1.98015 3.88924 1.98015ZM3.88924 1.53512C2.29685 1.53512 1.03149 1.89122 1.03149 3.58242V35.1387C1.03149 36.8745 2.29703 38.2543 3.88942 38.2543H6.74735V3.58242C6.74735 1.84676 5.48164 1.53512 3.88924 1.53512Z" fill="#D72B27"/>
<path d="M43.9025 38.2541H41.0444V3.49349C41.0444 1.75763 42.3102 1.53512 43.9025 1.53512C45.4949 1.53512 46.7607 1.75763 46.7607 3.49349V35.1831C46.7607 36.8743 45.4949 38.2541 43.9025 38.2541Z" fill="#D54B3D"/>
<path d="M43.9025 1.98015C45.7398 1.98015 46.3522 2.38072 46.3522 3.49349V35.1831C46.3522 36.6518 45.2498 37.8535 43.9025 37.8535H41.4527V3.49349C41.4527 2.33625 42.0652 1.98015 43.9025 1.98015ZM43.9025 1.53512C42.3102 1.53512 41.0444 1.75763 41.0444 3.49349V38.2987H43.9025C45.4949 38.2987 46.7607 36.9188 46.7607 35.1831V3.49349C46.7607 1.75763 45.4949 1.53512 43.9025 1.53512Z" fill="#D72B27"/>
<path d="M31.6528 38.2541L1.27002 4.87676L2.86816 5.58525L24.0177 22.1867L46.7597 4.00805V35.1831C46.7597 36.8743 45.494 38.2541 43.9016 38.2541H31.6528Z" fill="url(#paint0_linear)"/>
<path d="M23.8553 23.2555L2.25649 6.16453C0.990767 5.14088 0.623306 3.18251 1.56235 1.80275C2.50176 0.423003 4.33888 0.111559 5.64539 1.13521L23.8963 15.6003L42.2691 0.956961C43.5348 -0.066688 45.3314 0.244951 46.2704 1.66917C47.2094 3.04892 46.9237 5.00729 45.6171 6.03094L23.8551 23.2553L23.8553 23.2555Z" fill="#D54B3D"/>
<path d="M43.9026 0.778443C44.6783 0.778443 45.4132 1.17901 45.9032 1.89102C46.6789 3.09292 46.434 4.73965 45.3724 5.62991L23.8554 22.7209L2.50166 5.80796C1.39928 4.9177 1.11339 3.22631 1.8891 2.06927C2.33832 1.40153 3.11403 0.95669 3.93053 0.95669C4.46133 0.95669 4.99213 1.13455 5.40038 1.49065L23.6104 15.9111L23.8554 16.0893L24.1003 15.9111L42.4327 1.26813C42.8819 0.95669 43.3718 0.778443 43.9026 0.778443ZM43.9026 0.333412C43.331 0.333412 42.7184 0.511464 42.2286 0.912031L23.8554 15.555L5.6045 1.09008C5.11485 0.689515 4.50248 0.511464 3.88992 0.511464C2.99167 0.511464 2.09341 0.956495 1.52182 1.80229C0.623564 3.18185 0.991025 5.14022 2.25674 6.16387L23.8555 23.2995L45.5765 6.03047C46.8422 5.00682 47.1281 3.09292 46.2299 1.6687C45.6583 0.778443 44.8008 0.333412 43.9026 0.333412Z" fill="#D72B27"/>
</g>
<defs>
<linearGradient id="paint0_linear" x1="1.27184" y1="21.1304" x2="46.7743" y2="21.1304" gradientUnits="userSpaceOnUse">
<stop stop-opacity="0.1"/>
<stop offset="1" stop-opacity="0.2"/>
</linearGradient>
<clipPath id="clip0">
<rect width="46" height="38" fill="white" transform="translate(0.987061 0.333412)"/>
</clipPath>
</defs>
</svg>
