<svg width="46" height="38" viewBox="0 0 46 38" fill="none" xmlns="http://www.w3.org/2000/svg">
<path d="M41.4 33.25H36.8V12.4688L23 21.375L9.2 12.4688V33.25H4.6V4.75H7.36L23 14.8438L38.64 4.75H41.4V33.25ZM41.4 0H4.6C2.047 0 0 2.11375 0 4.75V33.25C0 34.5098 0.484641 35.718 1.34731 36.6088C2.20998 37.4996 3.38 38 4.6 38H41.4C42.62 38 43.79 37.4996 44.6527 36.6088C45.5154 35.718 46 34.5098 46 33.25V4.75C46 3.49022 45.5154 2.28204 44.6527 1.39124C43.79 0.500445 42.62 0 41.4 0Z" fill="white"/>
</svg>
