<svg xmlns="http://www.w3.org/2000/svg" width="39" height="39" viewBox="0 0 39 39"><g><g><path fill="#61b2e4" d="M35.963.4H2.352A2.292 2.292 0 0 0 .06 2.692v33.61a2.292 2.292 0 0 0 2.292 2.292h33.61a2.292 2.292 0 0 0 2.292-2.291V2.692A2.292 2.292 0 0 0 35.963.4z"/></g><g><path fill="#fff" d="M6.93 14.92h4.583v16.042H6.93z"/></g><g><path fill="#fff" d="M9.224 11.477a2.674 2.674 0 1 0 0-5.347 2.674 2.674 0 0 0 0 5.347z"/></g><g><path fill="#fff" d="M24.119 18.731c-1.688 0-3.056.893-3.056 3.438v8.785H16.48V14.912h4.583V16.6h-.001a6.097 6.097 0 0 1 4.585-2.07c3.375 0 6.11 2.52 6.11 6.875v9.549h-4.583v-8.785c0-2.545-1.367-3.438-3.055-3.438z"/></g></g></svg>