<svg width="38" height="38" viewBox="0 0 38 38" fill="none" xmlns="http://www.w3.org/2000/svg">
<path d="M35.1901 0.000265675H2.80986C2.44587 -0.00475904 2.08446 0.0615351 1.74625 0.195362C1.40805 0.329189 1.09967 0.527927 0.838748 0.780227C0.577821 1.03253 0.369451 1.33345 0.225538 1.6658C0.0816243 1.99815 0.00498586 2.35543 0 2.71723V35.2828C0.00498586 35.6446 0.0816243 36.0018 0.225538 36.3342C0.369451 36.6665 0.577821 36.9675 0.838748 37.2198C1.09967 37.4721 1.40805 37.6708 1.74625 37.8046C2.08446 37.9385 2.44587 38.0048 2.80986 37.9997H35.1901C35.5541 38.0048 35.9155 37.9385 36.2537 37.8046C36.592 37.6708 36.9003 37.4721 37.1613 37.2198C37.4222 36.9675 37.6305 36.6665 37.7745 36.3342C37.9184 36.0018 37.995 35.6446 38 35.2828V2.71723C37.995 2.35543 37.9184 1.99815 37.7745 1.6658C37.6305 1.33345 37.4222 1.03253 37.1613 0.780227C36.9003 0.527927 36.592 0.329189 36.2537 0.195362C35.9155 0.0615351 35.5541 -0.00475904 35.1901 0.000265675ZM11.5262 31.8058H5.79175V14.7061H11.5262V31.8058ZM8.65895 12.3121C7.86811 12.3121 7.10965 11.9998 6.55044 11.444C5.99122 10.8881 5.67706 10.1342 5.67706 9.34813C5.67706 8.56204 5.99122 7.80815 6.55044 7.2523C7.10965 6.69645 7.86811 6.38418 8.65895 6.38418C9.07889 6.33684 9.50416 6.3782 9.9069 6.50555C10.3096 6.63291 10.6808 6.84338 10.996 7.12319C11.3113 7.40301 11.5635 7.74585 11.7362 8.12927C11.9089 8.51269 11.9981 8.92804 11.9981 9.34813C11.9981 9.76823 11.9089 10.1836 11.7362 10.567C11.5635 10.9504 11.3113 11.2933 10.996 11.5731C10.6808 11.8529 10.3096 12.0634 9.9069 12.1907C9.50416 12.3181 9.07889 12.3594 8.65895 12.3121ZM32.2082 31.8058H26.4738V22.629C26.4738 20.33 25.6519 18.829 23.5684 18.829C22.9236 18.8337 22.2957 19.0347 21.7694 19.405C21.2431 19.7753 20.8436 20.2971 20.6248 20.9C20.4752 21.3465 20.4104 21.8168 20.4336 22.287V31.7868H14.6992V14.6871H20.4336V17.1C20.9545 16.2015 21.7122 15.4613 22.625 14.9591C23.5378 14.4569 24.5711 14.2118 25.6137 14.2501C29.4366 14.2501 32.2082 16.701 32.2082 21.964V31.8058Z" fill="white"/>
</svg>
