<svg viewBox="0 0 39 39" xmlns="http://www.w3.org/2000/svg">
<path d="M36.9761 22.5054C36.964 22.5724 36.9556 22.6401 36.943 22.7071L36.8779 22.3233C36.9136 22.3831 36.943 22.4453 36.9761 22.5056C37.1739 21.43 37.2741 20.3387 37.2752 19.245C37.2752 16.817 36.8009 14.4613 35.864 12.2438C34.96 10.1017 33.6668 8.17791 32.0179 6.52628C30.3715 4.87465 28.451 3.5782 26.3153 2.67218C24.1037 1.73417 21.7538 1.25877 19.3316 1.25877C18.1901 1.25877 17.0465 1.3662 15.9338 1.58032C15.9315 1.58091 15.9285 1.58091 15.9254 1.58151C15.988 1.61469 16.0513 1.6443 16.1126 1.67867L15.7352 1.61945C15.7985 1.60755 15.8623 1.59416 15.9254 1.58151C14.3989 0.767895 12.6817 0.333412 10.9438 0.333412C8.10659 0.333412 5.43872 1.4409 3.43229 3.45276C1.42646 5.46403 0.321045 8.13819 0.321045 10.9824C0.322008 12.7891 0.781974 14.5658 1.65758 16.145C1.66901 16.0798 1.67687 16.0141 1.68949 15.9489L1.75451 16.326C1.72081 16.2669 1.69127 16.2053 1.65758 16.145C1.47899 17.1687 1.3886 18.2058 1.38742 19.245C1.38742 21.6737 1.86168 24.0288 2.79862 26.2469C3.70126 28.3896 4.99519 30.312 6.64226 31.9636C8.2911 33.6154 10.2091 34.9136 12.3472 35.8173C14.5589 36.7571 16.9094 37.2331 19.3316 37.2331C20.3859 37.2331 21.4427 37.1365 22.474 36.9532C22.4139 36.9194 22.3526 36.8886 22.2911 36.853L22.6745 36.9206C22.6083 36.9333 22.5415 36.9411 22.4742 36.9532C24.0681 37.8575 25.8685 38.333 27.7 38.3334C30.5368 38.3334 33.2034 37.2276 35.2098 35.2153C37.2167 33.2052 38.321 30.5304 38.321 27.6862C38.3201 25.8727 37.8571 24.0895 36.9761 22.5056V22.5054ZM19.4031 30.2608C13.0285 30.2608 10.1766 27.1191 10.1766 24.7647C10.1766 23.557 11.066 22.7106 12.2918 22.7106C15.0198 22.7106 14.3132 26.6372 19.4031 26.6372C22.009 26.6372 23.4478 25.2189 23.4478 23.7675C23.4478 22.8947 23.0182 21.9269 21.3024 21.5029L15.6324 20.0841C11.066 18.9361 10.2373 16.4617 10.2373 14.1355C10.2373 9.30608 14.7735 7.49271 19.0337 7.49271C22.9579 7.49271 27.584 9.66676 27.584 12.5641C27.584 13.8057 26.5115 14.5276 25.2862 14.5276C22.9579 14.5276 23.3865 11.2973 18.6967 11.2973C16.3695 11.2973 15.0805 12.3537 15.0805 13.8653C15.0805 15.3741 16.9184 15.8561 18.5143 16.2203L22.7112 17.1542C27.3083 18.1808 28.474 20.8714 28.474 23.4055C28.474 27.3303 25.4686 30.2608 19.4031 30.2608ZM22.2911 36.853C22.3526 36.8888 22.4139 36.9194 22.4742 36.9532C22.5415 36.9411 22.6083 36.9332 22.6745 36.9205L22.2911 36.853ZM36.943 22.7071C36.9556 22.6401 36.964 22.5725 36.9761 22.5056C36.943 22.4452 36.9134 22.3831 36.8781 22.3233L36.943 22.7071ZM1.68949 15.9489C1.67687 16.0141 1.66901 16.0798 1.65758 16.145C1.69127 16.2053 1.72081 16.2669 1.75451 16.326L1.68949 15.9489ZM16.1126 1.67867C16.0513 1.6443 15.988 1.61469 15.9255 1.58151C15.8623 1.59416 15.7985 1.6074 15.7352 1.61945L16.1126 1.67867Z" fill="#00AFF0"/>
</svg>
