<svg viewBox="0 0 38 38" xmlns="http://www.w3.org/2000/svg">
<path d="M29.7464 23.7302C29.7666 20.7684 27.9869 18.7991 25.5577 17.693C24.3615 17.1893 23.1359 16.7779 21.9675 16.4937C20.3832 16.0989 18.9022 15.8366 17.3248 15.396C16.0464 15.0983 14.4813 14.1322 14.436 12.9974C14.7266 10.9842 17.2156 10.5286 18.7279 10.5175C20.9892 10.4324 22.4063 11.5499 23.3912 13.2007C24.1125 14.3915 24.6978 15.0993 26.0323 15.1114C27.4849 15.0309 28.6131 13.9001 28.6322 12.5908C28.4293 9.64229 25.7582 7.9423 23.3087 7.14306C20.1452 6.35542 16.6717 6.33198 13.7345 7.42765C10.9407 8.44428 9.01998 10.7296 8.9887 13.4446C9.12888 18.4338 14.2204 19.8681 18.0263 20.6811C19.1855 20.9087 20.303 21.1465 21.369 21.4942C22.7947 22.0042 23.9905 22.7743 24.0101 24.2587C24.0101 25.1531 23.5562 25.8984 22.6483 26.4947C20.7057 27.4364 18.3072 27.9435 16.3756 26.9419C14.9967 26.2929 14.3279 25.1972 13.7757 23.9741C13.1984 22.7088 12.4875 21.9151 11.1345 21.9007C9.71619 21.9528 8.47224 22.9556 8.45215 24.2587C8.67687 26.8657 10.5268 29.0142 12.6202 30.1129C16.5844 31.7167 20.9584 32.0276 24.7941 30.4788C27.7756 29.2184 29.7154 26.656 29.7464 23.7302ZM36.927 22.9984C37.6423 24.462 38 26.0069 38 27.6331C37.937 30.4711 36.7951 33.1023 34.9255 34.9712C32.7757 36.9535 30.1898 37.9807 27.4767 38C25.6853 37.9703 24.0009 37.5546 22.5246 36.7804C19.0765 37.3704 15.0623 36.8832 12.1251 35.6623C7.66838 33.6794 4.25117 30.1716 2.44781 26.1287C1.06301 22.4869 0.681588 19.0654 1.39551 15.5586C-0.969496 11.3494 -0.264575 6.2651 3.02557 2.97592C6.67082 -0.458115 11.938 -0.893943 16.0868 1.53267C21.9826 0.594771 28.0278 2.66064 32.0162 6.53322C35.4537 10.0661 37.3067 14.6958 37.3397 19.1769C37.3341 20.4998 37.1895 21.7972 36.927 22.9984Z"/>
</svg>
