<svg width="38" height="38" viewBox="0 0 38 38" fill="none" xmlns="http://www.w3.org/2000/svg">
<path d="M38 18.5043C38 23.6261 36.1826 28.0043 32.5478 31.6391C28.913 35.2739 24.5072 37.0913 19.3304 37.0913C16.2464 37.0913 13.2449 36.3203 10.3261 34.7783L0 38L3.30435 28.087C1.54203 25.113 0.66087 21.9188 0.66087 18.5043C0.66087 13.3826 2.47826 9.01812 6.11304 5.41087C9.74783 1.80362 14.1536 0 19.3304 0C24.5072 0 28.913 1.80362 32.5478 5.41087C36.1826 9.01812 38 13.3826 38 18.5043ZM19.3304 2.8913C14.9797 2.8913 11.2761 4.41957 8.21956 7.47609C5.16304 10.5326 3.63478 14.2087 3.63478 18.5043C3.63478 21.9188 4.62609 24.9754 6.6087 27.6739L4.62609 33.4565L10.7391 31.5565C13.4377 33.2638 16.3014 34.1174 19.3304 34.1174C23.6812 34.1174 27.3848 32.5891 30.4413 29.5326C33.4978 26.4761 35.0261 22.8 35.0261 18.5043C35.0261 14.2087 33.4978 10.5326 30.4413 7.47609C27.3848 4.41957 23.6812 2.8913 19.3304 2.8913ZM28.7478 22.8C28.6928 22.7449 28.4174 22.5522 27.9217 22.2217C27.7565 22.1667 27.2333 21.9326 26.3522 21.5196C25.471 21.1065 24.9478 20.8725 24.7826 20.8174C24.287 20.6522 23.929 20.7072 23.7087 20.9826C23.6536 21.1478 23.5297 21.3543 23.337 21.6022C23.1442 21.85 22.9377 22.0978 22.7174 22.3457C22.4971 22.5935 22.3594 22.7449 22.3043 22.8C22.0841 23.1304 21.7536 23.158 21.313 22.8826C19.4406 21.9464 18.2014 21.2029 17.5957 20.6522C17.2101 20.2667 16.8384 19.8536 16.4804 19.413C16.1225 18.9725 15.792 18.5594 15.4891 18.1739C15.1862 17.7884 15.0348 17.5681 15.0348 17.513C14.8696 17.1275 14.9522 16.8246 15.2826 16.6043C15.5029 16.2739 15.7232 15.9986 15.9435 15.7783L16.4391 15.0348C16.5493 14.7594 16.5217 14.4841 16.3565 14.2087C16.1362 13.4928 15.6681 12.3638 14.9522 10.8217C14.787 10.3261 14.4565 10.0783 13.9609 10.0783H13.0522C12.5565 10.0783 12.1435 10.271 11.813 10.6565C10.7667 11.7029 10.2435 12.942 10.2435 14.3739C10.2435 15.6957 10.8493 17.2652 12.0609 19.0826L12.2261 19.3304C12.3362 19.4957 12.4601 19.6746 12.5978 19.8674C12.7355 20.0601 12.9283 20.308 13.1761 20.6109C13.4239 20.9138 13.6717 21.2029 13.9196 21.4783C14.1674 21.7536 14.4565 22.0703 14.787 22.4283C15.1174 22.7862 15.4754 23.1304 15.8609 23.4609C16.2464 23.7913 16.6457 24.108 17.0587 24.4109C17.4717 24.7138 17.9261 24.9891 18.4217 25.237C18.9174 25.4848 19.413 25.7188 19.9087 25.9391C20.7899 26.2696 21.5471 26.5449 22.1804 26.7652C22.8138 26.9855 23.3094 27.1232 23.6674 27.1783C24.0254 27.2333 24.287 27.2609 24.4522 27.2609C24.6174 27.2609 24.8101 27.2333 25.0304 27.1783C25.2507 27.1232 25.3884 27.0957 25.4435 27.0957C25.9391 27.0406 26.5312 26.7928 27.2196 26.3522C27.908 25.9116 28.3348 25.4435 28.5 24.9478C28.9406 23.7913 29.0232 23.0754 28.7478 22.8Z" fill="white"/>
</svg>
