<svg width="39" height="39" viewBox="0 0 39 39" fill="none" xmlns="http://www.w3.org/2000/svg">
<g clip-path="url(#clip0)">
<g filter="url(#filter0_f)">
<path d="M1.58984 37.4463L4.13629 28.1911C2.57057 25.4829 1.73605 22.4065 1.74466 19.2616C1.74466 9.4064 9.7971 1.39387 19.6908 1.39387C24.4912 1.39387 28.9993 3.2535 32.3804 6.62988C35.77 10.0063 37.6369 14.4968 37.6282 19.2701C37.6282 29.1251 29.5757 37.1378 19.6821 37.1378H19.6735C16.6711 37.1378 13.7202 36.3837 11.0962 34.961L1.58984 37.4463ZM11.5436 31.7217L12.0856 32.0474C14.374 33.4014 16.998 34.1126 19.6735 34.1212H19.6821C27.8982 34.1212 34.5912 27.4626 34.5912 19.2701C34.5912 15.3023 33.0427 11.5746 30.2295 8.76365C27.4163 5.95283 23.6653 4.41036 19.6821 4.41036C11.4575 4.41036 4.76433 11.0689 4.76433 19.2614C4.76433 22.0638 5.54719 24.7974 7.04418 27.1628L7.39687 27.7283L5.89141 33.2043L11.5436 31.7217Z" fill="black" fill-opacity="0.24"/>
</g>
<path d="M2.40381 36.4909L4.83373 27.6637C3.33537 25.0745 2.54717 22.1383 2.54824 19.1498C2.54824 9.75549 10.229 2.1132 19.6512 2.1132C24.2308 2.1132 28.5215 3.89048 31.75 7.10643C34.9786 10.3225 36.7545 14.605 36.7545 19.1582C36.7545 28.5523 29.0737 36.1946 19.6514 36.1946H19.6429C16.7795 36.1946 13.9672 35.4753 11.4693 34.1212L2.40381 36.4911V36.4909Z" fill="url(#paint0_linear)"/>
<path d="M1.78369 37.1087L4.29852 27.9684C2.75225 25.2941 1.92797 22.2557 1.93658 19.1498C1.93658 9.41704 9.88912 1.50387 19.66 1.50387C24.4008 1.50387 28.8528 3.34029 32.192 6.67483C35.5394 10.0094 37.3832 14.4441 37.3747 19.1582C37.3747 28.8909 29.4222 36.8041 19.6513 36.8041H19.643C16.6835 36.8029 13.7713 36.0639 11.1721 34.6544L1.78369 37.1088V37.1087ZM11.6138 31.4553L12.1491 31.7769C14.4092 33.1141 17.0005 33.8166 19.643 33.825H19.6514C27.7653 33.825 34.3755 27.2491 34.3755 19.1582C34.3755 15.2398 32.8462 11.5582 30.0679 8.78227C27.2896 6.00635 23.5852 4.48295 19.6514 4.48295C11.5289 4.48295 4.91884 11.0589 4.91884 19.1498C4.91884 21.9173 5.6919 24.617 7.17034 26.9528L7.51872 27.5114L6.03182 32.9194L11.6138 31.4553Z" fill="white"/>
<path d="M15.2247 11.7614C14.8932 11.025 14.5449 11.008 14.2306 10.9996C13.9757 10.9911 13.6784 10.9911 13.381 10.9911C13.0836 10.9911 12.6077 11.1012 12.2 11.5412C11.7921 11.9814 10.6536 13.0477 10.6536 15.2229C10.6536 17.3893 12.2424 19.4882 12.4633 19.7844C12.6842 20.0807 15.5305 24.6762 20.025 26.445C23.7634 27.9177 24.5282 27.6214 25.3352 27.5453C26.1509 27.4691 27.9522 26.4789 28.3259 25.4464C28.6912 24.4139 28.6912 23.5337 28.5808 23.3475C28.4704 23.1612 28.173 23.0513 27.7312 22.8312C27.2894 22.6112 25.1143 21.5448 24.7066 21.3925C24.2987 21.2402 24.0014 21.1725 23.7125 21.6125C23.415 22.0526 22.5655 23.0428 22.3105 23.3391C22.0556 23.6352 21.7923 23.6691 21.3504 23.4491C20.9087 23.2291 19.4813 22.7635 17.7906 21.2571C16.4737 20.0891 15.5815 18.6419 15.3265 18.2018C15.0717 17.7618 15.3011 17.5246 15.522 17.3048C15.7174 17.11 15.9638 16.7884 16.1848 16.5346C16.4057 16.2807 16.4821 16.0945 16.6265 15.7982C16.771 15.5021 16.703 15.2482 16.5925 15.0282C16.4821 14.808 15.6155 12.633 15.2247 11.7614Z" fill="white"/>
</g>
<defs>
<filter id="filter0_f" x="-4.41016" y="-4.60613" width="48.0384" height="48.0524" filterUnits="userSpaceOnUse" color-interpolation-filters="sRGB">
<feFlood flood-opacity="0" result="BackgroundImageFix"/>
<feBlend mode="normal" in="SourceGraphic" in2="BackgroundImageFix" result="shape"/>
<feGaussianBlur stdDeviation="3" result="effect1_foregroundBlur"/>
</filter>
<linearGradient id="paint0_linear" x1="19.5785" y1="36.4887" x2="19.5785" y2="2.11114" gradientUnits="userSpaceOnUse">
<stop stop-color="#20B038"/>
<stop offset="1" stop-color="#60D66A"/>
</linearGradient>
<clipPath id="clip0">
<rect width="38" height="38" fill="white" transform="translate(0.655029 0.333412)"/>
</clipPath>
</defs>
</svg>
